<svg id="bold" enable-background="new 0 0 32 32" height="512" viewBox="0 0 32 32" width="512" xmlns="http://www.w3.org/2000/svg"><path d="m26 32h-20c-3.314 0-6-2.686-6-6v-20c0-3.314 2.686-6 6-6h20c3.314 0 6 2.686 6 6v20c0 3.314-2.686 6-6 6z" fill="#ffe6e2"/><g fill="#fd907e"><path d="m21.207 10.9v.027c0 .287-.047.567-.14.833-.08.24-.293.4-.527.44-.033 0-.073 0-.107.007-.073 0-.14-.007-.213-.033-.347-.12-.533-.5-.413-.847.033-.113.06-.233.06-.353.007-.027.007-.047.007-.073 0-.867-.8-1.567-1.78-1.567-.627 0-1.22.3-1.533.787-.02.027-.033.053-.06.073v-1.78c.472-.267 1.019-.414 1.592-.414 1.72 0 3.114 1.3 3.114 2.9z"/><path d="m22.94 16.407c.24.46.36.973.36 1.507 0 1.36-.82 2.567-2.093 3.16v.026c0 1.6-1.393 2.9-3.113 2.9-.573 0-1.12-.147-1.593-.413v-1.773c.027.02.047.04.06.067.313.487.907.787 1.533.787.98 0 1.78-.7 1.78-1.567 0-.1-.013-.207-.04-.307-.08-.347.12-.693.46-.793 1-.307 1.673-1.14 1.673-2.087 0-.46-.153-.893-.447-1.26-.12-.153-.167-.347-.133-.54.033-.187.153-.353.32-.453.6-.353.96-.94.96-1.573 0-1.04-.953-1.887-2.127-1.887-.033 0-.073 0-.107.007-.347.047-.627.307-.627.607 0 .327.34.607.733.607.367 0 .667.3.667.667s-.3.667-.667.667c-1.14 0-2.067-.873-2.067-1.94 0-.853.58-1.573 1.393-1.84.213-.067.44-.107.673-.107.227 0 .453.02.667.06 1.595.291 2.795 1.598 2.795 3.158 0 .886-.387 1.72-1.06 2.32z"/><path d="m18.833 17.92c0 .913-.747 1.667-1.667 1.667-.24 0-.46-.047-.667-.14v-1.527c0 .367.3.667.667.667s.667-.3.667-.667c0-.28.227-.507.5-.507.274 0 .5.227.5.507z"/></g><path d="m9.947 14.047c0 .373-.1.733-.307 1.067l-1.513 2.62c-.08.133-.127.286-.127.439 0 .454.367.827.827.827h1.173v1.52c0 .82.66 1.48 1.473 1.48.167 0 .32-.027.42-.06l1.44-.393v1.953c0 .273.227.5.5.5h1.667v-15.98c-3.1.24-5.553 2.853-5.553 6.027z" fill="#fc573b"/></svg>